<?xml version="1.0" standalone="no"?>
<!DOCTYPE svg PUBLIC "-//W3C//DTD SVG 20010904//EN"
 "http://www.w3.org/TR/2001/REC-SVG-20010904/DTD/svg10.dtd">
<svg version="1.0" xmlns="http://www.w3.org/2000/svg"
 width="256.000000pt" height="256.000000pt" viewBox="0 0 256.000000 256.000000"
 preserveAspectRatio="xMidYMid meet">

<g transform="translate(0.000000,256.000000) scale(0.100000,-0.100000)"
fill="#000000" stroke="none">
<path d="M1034 2183 c-169 -272 -754 -1397 -736 -1415 5 -5 61 -12 123 -16
161 -10 1826 -9 1835 1 9 9 -26 75 -149 282 -216 360 -474 766 -495 779 -5 3
-50 -54 -101 -129 l-90 -134 -47 87 c-241 450 -304 562 -318 562 -6 0 -16 -8
-22 -17z m70 -221 c29 -48 188 -336 250 -452 l18 -35 -150 -242 c-83 -132
-175 -282 -204 -333 l-52 -93 -251 8 c-137 4 -256 8 -262 8 -7 0 -13 8 -13 17
0 25 310 641 492 980 77 142 119 210 128 205 5 -3 24 -31 44 -63z m633 -439
c210 -318 441 -699 430 -709 -7 -7 -508 -19 -752 -18 -312 2 -335 3 -335 16 0
34 519 878 540 878 4 0 57 -75 117 -167z"/>
<path d="M2002 660 c-17 -11 -32 -28 -33 -37 0 -10 0 -65 0 -122 0 -122 10
-141 73 -141 59 0 78 26 78 105 l0 65 -40 0 c-36 0 -40 -3 -40 -24 0 -13 7
-27 16 -30 20 -8 15 -71 -6 -72 -33 -1 -40 18 -40 105 0 98 15 136 44 112 9
-7 16 -19 16 -26 0 -7 12 -15 26 -18 24 -4 26 -3 20 27 -13 61 -63 87 -114 56z"/>
<path d="M535 648 c6 -27 55 -280 55 -286 0 -2 12 -2 27 0 26 3 28 6 55 143
15 77 27 146 28 153 0 6 -11 12 -25 12 -14 0 -25 -6 -26 -12 0 -7 -2 -22 -4
-33 -2 -11 -7 -42 -11 -70 -8 -70 -21 -89 -28 -45 -3 19 -10 62 -16 94 -5 33
-10 61 -10 63 0 2 -11 3 -25 3 -21 0 -25 -4 -20 -22z"/>
<path d="M810 516 l0 -154 70 -4 c70 -3 71 -3 68 22 -3 22 -8 25 -46 25 -42 0
-42 0 -42 38 0 37 0 37 41 37 33 0 40 3 35 16 -3 9 -6 20 -6 25 0 5 -16 9 -35
9 -35 0 -35 0 -35 45 l0 45 45 0 c41 0 45 2 45 25 0 24 -2 25 -70 25 l-70 0 0
-154z"/>
<path d="M1060 515 l0 -155 25 0 c24 0 25 2 25 66 0 83 17 82 44 -4 17 -52 23
-62 43 -62 28 0 28 2 3 75 -20 57 -20 57 0 82 29 37 27 97 -5 128 -20 21 -34
25 -80 25 l-55 0 0 -155z m105 65 c0 -31 -3 -35 -27 -38 -27 -3 -28 -1 -28 38
0 39 1 41 28 38 24 -3 27 -7 27 -38z"/>
<path d="M1350 515 c0 -148 1 -155 20 -155 18 0 20 7 20 80 0 44 4 80 8 80 5
0 16 -25 26 -55 9 -30 23 -55 30 -55 8 0 22 29 34 68 l20 67 1 -92 c1 -92 1
-93 26 -93 l25 0 0 155 0 155 -24 0 c-22 0 -27 -9 -51 -85 -14 -47 -28 -85
-30 -85 -2 0 -16 38 -31 85 -25 74 -31 85 -51 85 -23 0 -23 0 -23 -155z"/>
<path d="M1736 653 c-10 -34 -66 -275 -66 -285 0 -5 10 -8 23 -6 14 2 23 11
25 26 3 18 10 22 37 22 27 0 34 -5 39 -25 5 -18 13 -25 30 -25 l24 0 -19 83
c-11 45 -27 115 -36 155 -12 56 -20 72 -34 72 -10 0 -20 -8 -23 -17z m38 -150
c6 -39 4 -43 -14 -43 -22 0 -24 11 -13 74 7 44 17 33 27 -31z"/>
</g>
</svg>
